<?xml version="1.0" encoding="UTF-8"?> <svg xmlns="http://www.w3.org/2000/svg" xmlns:xlink="http://www.w3.org/1999/xlink" version="1.1" id="Слой_1" x="0px" y="0px" viewBox="0 0 210 40" style="enable-background:new 0 0 210 40;" xml:space="preserve"> <g transform="translate(0.000000,781.000000) scale(0.100000,-0.100000)"> <path d="M0,7609.4V7410h199.4h199.4v104.3v104.3h-10.6h-10.6v-93.7v-93.7H199.4H21.2v178.2v178.2h78.2h78.2v10.6v10.6H88.8H0 V7609.4z"></path> <path d="M291.3,7748.8c-5.2-1.8-14.4-9.9-23.3-20.2c-6.6-7.6-19.9-26.8-31.1-44.6c-2.8-4.5-7.7-12.3-10.9-17.5 c-3.2-5.1-7.3-11.7-9.2-14.7c-13.1-20.9-15.2-24.1-15.4-23.8c-0.2,0.1,0.2,2.9,0.9,6.2c2.1,10.7,2.9,15.6,3.8,21.5 c2,13.8,0.1,25.4-4.6,27.6c-3.7,1.7-10.8,0-15-3.6c-3.3-2.8-11.1-12-17.2-20.1c-7.3-9.8-19.4-26.1-23.6-31.9c-2-2.8-3.7-5-3.8-5 c-0.3,0,4.7,16.1,10.9,34.8c2.4,7.3,4.4,14.2,4.4,15.2c0,2.5-2.1,4.5-6,5.6c-5.2,1.4-6.1-0.1-15.8-28.4 c-9.9-28.5-19.2-62.1-19.9-71.1c-0.3-4.4-0.3-4.7,1-5.6c2.4-1.7,7.2-0.9,10,1.7c0.6,0.6,3,4.3,5.4,8.3c4.2,7.3,8.2,13.3,16.3,25.2 c15.6,22.9,27.6,38.7,38.5,50.8c4.5,5,5.6,5.9,6,5.2c0.3-0.6-0.3-5.7-2.1-15.4c-5.8-31.9-7.2-42-7.2-51.5c0-2.6,0.3-3.6,1.1-4.5 c1.9-1.9,4-1.4,8.1,1.7c4.6,3.5,6.6,5.7,12.1,13c5.2,6.9,17.3,25.6,22.1,34.2c0.6,1,3.6,5.9,6.5,10.8s9.1,15,13.6,22.3 c8.4,13.9,10.3,17,12.1,19.6c0.6,0.9,1,1.7,1,1.8s2.1,3.4,4.7,7.3c5.7,8.7,12,16.7,17,21.7c3.8,3.8,9.5,8,10.8,8s1.2-12-0.2-23 c-1.7-13.3-18.2-86.6-24.9-110.5c-1.8-6.5-5-18.6-7.2-26.9c-4.3-17.1-4.5-17.9-10-37.2c-5.6-19.7-6.9-24.1-10.6-35.5 c-3.9-12-5.1-16.4-6.2-22.9c-1-5.7-0.7-7.6,1.3-9.2c1.9-1.5,3.8-1.4,7.3,0.5c2.6,1.4,3,1.9,4.4,5.6c0.9,2.2,3.3,10.8,5.3,18.9 c6.8,26.8,9.9,37.7,18.4,66.4c3.2,10.9,5.1,18,10.5,40.1c2.9,11.3,5.4,21.6,5.7,22.7c0.3,1.1,2.1,8.6,4,16.6 c1.9,8,4.8,20.1,6.4,26.6c7.6,31.5,9.5,42.9,10.1,60.5c0.2,6.8,0.1,10.4-0.4,12.6C304.6,7747.2,298.5,7751.3,291.3,7748.8z"></path> </g> <g> <path d="M53.4,30.9V15.5H54l0.2,1.6c0.2-0.6,0.6-1,1.2-1.3c0.5-0.3,1.2-0.5,2-0.5c1.2,0,2,0.2,2.5,0.7s0.7,1.2,0.7,2.2l-0.3,0 c0.2-0.9,0.7-1.6,1.3-2.2c0.6-0.5,1.4-0.8,2.4-0.8c1.3,0,2.1,0.3,2.6,0.9c0.5,0.6,0.7,1.4,0.7,2.6v12.1h-0.7V19.2 c0-1.3-0.2-2.1-0.6-2.6c-0.4-0.5-1.1-0.7-2-0.7c-0.9,0-1.7,0.3-2.3,0.8c-0.6,0.6-0.9,1.3-1,2.1v12h-0.7v-12c0-1.1-0.2-1.8-0.6-2.3 c-0.4-0.4-1.1-0.7-2.1-0.7c-0.9,0-1.6,0.2-2.1,0.7c-0.5,0.5-0.8,1-1,1.6v12.6H53.4z"></path> <path d="M76.4,34.5c-0.3,0-0.6,0-0.8-0.1s-0.3-0.1-0.5-0.1v-0.6c0,0,0.2,0.1,0.4,0.1c0.2,0.1,0.4,0.1,0.8,0.1 c0.3,0,0.7-0.1,1.1-0.2c0.4-0.1,0.8-0.4,1.1-0.9c0.2-0.2,0.4-0.5,0.6-0.8c0.2-0.3,0.3-0.7,0.2-1.1l-3.8-15.4h0.8l3.5,14.4h-0.1 l3.4-14.4h0.7l-3.6,15.3c-0.3,1.2-0.7,2.1-1.3,2.8C78.3,34.2,77.5,34.5,76.4,34.5z"></path> <path d="M91.8,21.7v-2.1h7.8v2.1H91.8z"></path> <path d="M115.6,31.1c-1.2,0-2.2-0.2-3.1-0.6c-0.9-0.4-1.5-1.1-2-2c-0.5-1-0.7-2.3-0.7-4v-1.3c0.5,0,1,0,1.5,0s1,0,1.5,0v1.5 c0,1.2,0.1,2.1,0.3,2.8c0.2,0.6,0.6,1.1,1,1.3c0.4,0.3,0.9,0.4,1.4,0.4c0.9,0,1.6-0.3,2.1-0.9c0.6-0.6,0.8-1.6,0.8-3.1 c0-1.1-0.2-1.9-0.5-2.5c-0.3-0.5-0.8-1-1.5-1.3c-0.7-0.3-1.5-0.7-2.5-1.1c-0.8-0.4-1.6-0.8-2.2-1.3c-0.6-0.5-1.1-1.1-1.4-1.9 c-0.3-0.8-0.5-1.7-0.5-2.9c0-1.4,0.2-2.5,0.6-3.4c0.4-0.9,1-1.5,1.8-2c0.8-0.4,2-0.6,3.4-0.6c1.8,0,3.2,0.4,4.2,1.3 c1,0.9,1.5,2.1,1.5,3.7V16c-0.5,0-1,0-1.4,0c-0.5,0-1,0-1.4,0v-1.7c0-1.2-0.2-2.1-0.7-2.7c-0.5-0.6-1.2-0.9-2.1-0.9 c-1,0-1.7,0.3-2.1,0.9c-0.4,0.6-0.6,1.5-0.6,2.7c0,0.9,0.2,1.7,0.6,2.2c0.4,0.5,0.8,1,1.4,1.3c0.6,0.3,1.2,0.6,1.9,0.8 c1.1,0.4,2.1,0.9,2.8,1.3c0.7,0.5,1.2,1.1,1.5,1.8c0.3,0.7,0.5,1.8,0.5,3.2c0,1.5-0.3,2.8-0.8,3.7s-1.2,1.6-2.1,2 C117.9,30.9,116.8,31.1,115.6,31.1z"></path> <path d="M134.4,30.9V10.5h-3.7V8.4h10.4v2.1h-3.8v20.4H134.4z"></path> <path d="M153.6,30.9v-9.8l-4.2-12.7h3L155,17l0.2,1l0.2-1l2.8-8.5h2.7l-4.4,12.8v9.6H153.6z"></path> <path d="M171.1,30.9V8.4h2.9v20.4h5.9v2.1H171.1z"></path> <path d="M189.8,30.9V8.4h9.9v2.1h-6.8V18h5.5v2.3h-5.5v8.5h6.8v2.1H189.8z"></path> </g> </svg> 